<svg id="color" enable-background="new 0 0 24 24" height="512" viewBox="0 0 24 24" width="512" xmlns="http://www.w3.org/2000/svg"><path d="m15.75 20h-10.5c-1.241 0-2.25-1.01-2.25-2.25v-6.25h-1.75c-.689 0-1.25-.561-1.25-1.25 0-.348.148-.682.406-.916l9.576-9.127c.29-.275.746-.275 1.035 0l2.483 2.363v-.82c0-.414.336-.75.75-.75h3c.414 0 .75.336.75.75v5.108l2.607 2.488c.245.222.393.556.393.904 0 .689-.561 1.25-1.25 1.25h-1.75v6.25c0 1.24-1.009 2.25-2.25 2.25z" fill="#cfd8dc"/><path d="m10.5 0c-.186 0-.373.069-.518.207l-9.576 9.127c-.258.234-.406.568-.406.916 0 .689.561 1.25 1.25 1.25h1.75v6.25c0 1.24 1.009 2.25 2.25 2.25h5.25z" fill="#b4bcc0"/><path d="m17.5 24c-3.584 0-6.5-2.916-6.5-6.5s2.916-6.5 6.5-6.5 6.5 2.916 6.5 6.5-2.916 6.5-6.5 6.5z" fill="#607d8b"/><path d="m17.625 16.75h-.25c-.207 0-.375-.168-.375-.375s.168-.375.375-.375h1.375c.414 0 .75-.336.75-.75s-.336-.75-.75-.75h-.5v-.25c0-.414-.336-.75-.75-.75s-.75.336-.75.75v.365c-.726.259-1.25.946-1.25 1.76 0 1.033.841 1.875 1.875 1.875h.25c.207 0 .375.168.375.375s-.168.375-.375.375h-1.375c-.414 0-.75.336-.75.75s.336.75.75.75h.5v.25c0 .414.336.75.75.75s.75-.336.75-.75v-.365c.726-.259 1.25-.946 1.25-1.76 0-1.033-.841-1.875-1.875-1.875z" fill="#fff"/><path d="m17.5 16h-.125c-.207 0-.375.168-.375.375s.168.375.375.375h.125zm0-5c-3.584 0-6.5 2.916-6.5 6.5s2.916 6.5 6.5 6.5v-2.5c-.414 0-.75-.336-.75-.75v-.25h-.5c-.414 0-.75-.336-.75-.75s.336-.75.75-.75h1.25v-.75h-.125c-1.034 0-1.875-.842-1.875-1.875 0-.813.524-1.501 1.25-1.76v-.365c0-.414.336-.75.75-.75z" fill="#546d79"/><path d="m17.5 19h-1.25c-.414 0-.75.336-.75.75s.336.75.75.75h.5v.25c0 .414.336.75.75.75zm0-5.5c-.414 0-.75.336-.75.75v.365c-.726.259-1.25.946-1.25 1.76 0 1.033.841 1.875 1.875 1.875h.125v-1.5h-.125c-.207 0-.375-.168-.375-.375s.168-.375.375-.375h.125z" fill="#dedede"/></svg>